<svg width="750" height="250" viewBox="0 0 750 250" fill="none" xmlns="http://www.w3.org/2000/svg">
<g clip-path="url(#clip0_1_2)">
<rect width="750" height="250" fill="#B8B8B8"/>
<path d="M-0.447214 -0.894427C-0.941192 -0.647438 -1.14142 -0.0467649 -0.894427 0.447214L3.1305 8.49706C3.37748 8.99104 3.97816 9.19126 4.47214 8.94427C4.96611 8.69728 5.16634 8.09661 4.91935 7.60263L1.34164 0.447214L8.49706 -3.1305C8.99104 -3.37748 9.19126 -3.97816 8.94427 -4.47214C8.69728 -4.96611 8.09661 -5.16634 7.60263 -4.91935L-0.447214 -0.894427ZM750.447 250.894C750.941 250.647 751.141 250.047 750.894 249.553L746.87 241.503C746.623 241.009 746.022 240.809 745.528 241.056C745.034 241.303 744.834 241.903 745.081 242.397L748.658 249.553L741.503 253.13C741.009 253.377 740.809 253.978 741.056 254.472C741.303 254.966 741.903 255.166 742.397 254.919L750.447 250.894ZM0 0L-0.316228 0.948683L749.684 250.949L750 250L750.316 249.051L0.316228 -0.948683L0 0Z" fill="#8B8B8B"/>
<path d="M141.807 161V88.2727H150.614V153.188H184.42V161H141.807ZM219.08 162.136C214.155 162.136 209.835 160.964 206.118 158.621C202.425 156.277 199.536 152.998 197.453 148.784C195.393 144.57 194.364 139.646 194.364 134.011C194.364 128.33 195.393 123.37 197.453 119.132C199.536 114.894 202.425 111.604 206.118 109.26C209.835 106.916 214.155 105.744 219.08 105.744C224.004 105.744 228.313 106.916 232.006 109.26C235.723 111.604 238.611 114.894 240.67 119.132C242.754 123.37 243.795 128.33 243.795 134.011C243.795 139.646 242.754 144.57 240.67 148.784C238.611 152.998 235.723 156.277 232.006 158.621C228.313 160.964 224.004 162.136 219.08 162.136ZM219.08 154.608C222.82 154.608 225.898 153.649 228.312 151.732C230.727 149.814 232.515 147.293 233.675 144.168C234.835 141.043 235.415 137.657 235.415 134.011C235.415 130.366 234.835 126.968 233.675 123.82C232.515 120.671 230.727 118.126 228.312 116.185C225.898 114.243 222.82 113.273 219.08 113.273C215.339 113.273 212.261 114.243 209.847 116.185C207.432 118.126 205.644 120.671 204.484 123.82C203.324 126.968 202.744 130.366 202.744 134.011C202.744 137.657 203.324 141.043 204.484 144.168C205.644 147.293 207.432 149.814 209.847 151.732C212.261 153.649 215.339 154.608 219.08 154.608ZM278.605 182.591C274.557 182.591 271.077 182.07 268.165 181.028C265.253 180.01 262.827 178.661 260.885 176.98C258.968 175.323 257.441 173.547 256.304 171.653L262.98 166.966C263.738 167.96 264.697 169.097 265.857 170.375C267.017 171.677 268.603 172.802 270.615 173.749C272.651 174.719 275.315 175.205 278.605 175.205C283.009 175.205 286.643 174.139 289.507 172.009C292.372 169.878 293.804 166.54 293.804 161.994V150.915H293.094C292.479 151.909 291.603 153.14 290.466 154.608C289.354 156.052 287.744 157.342 285.637 158.479C283.553 159.591 280.736 160.148 277.185 160.148C272.782 160.148 268.828 159.106 265.324 157.023C261.844 154.939 259.086 151.909 257.05 147.932C255.038 143.955 254.032 139.125 254.032 133.443C254.032 127.856 255.014 122.991 256.979 118.848C258.944 114.681 261.678 111.462 265.182 109.189C268.686 106.893 272.734 105.744 277.327 105.744C280.878 105.744 283.695 106.336 285.779 107.52C287.886 108.68 289.496 110.006 290.608 111.497C291.745 112.965 292.621 114.172 293.236 115.119H294.088V106.455H302.185V162.562C302.185 167.25 301.12 171.062 298.989 173.997C296.882 176.956 294.041 179.123 290.466 180.496C286.915 181.893 282.962 182.591 278.605 182.591ZM278.321 152.619C281.683 152.619 284.524 151.85 286.844 150.311C289.164 148.772 290.928 146.559 292.135 143.67C293.343 140.782 293.946 137.326 293.946 133.301C293.946 129.371 293.355 125.903 292.171 122.896C290.987 119.89 289.235 117.534 286.915 115.83C284.595 114.125 281.73 113.273 278.321 113.273C274.77 113.273 271.811 114.172 269.444 115.972C267.1 117.771 265.336 120.186 264.152 123.216C262.992 126.246 262.412 129.608 262.412 133.301C262.412 137.089 263.004 140.439 264.188 143.351C265.395 146.239 267.171 148.512 269.515 150.169C271.882 151.803 274.818 152.619 278.321 152.619ZM339.685 162.136C334.761 162.136 330.44 160.964 326.723 158.621C323.03 156.277 320.142 152.998 318.059 148.784C315.999 144.57 314.969 139.646 314.969 134.011C314.969 128.33 315.999 123.37 318.059 119.132C320.142 114.894 323.03 111.604 326.723 109.26C330.44 106.916 334.761 105.744 339.685 105.744C344.609 105.744 348.918 106.916 352.611 109.26C356.328 111.604 359.216 114.894 361.276 119.132C363.359 123.37 364.401 128.33 364.401 134.011C364.401 139.646 363.359 144.57 361.276 148.784C359.216 152.998 356.328 156.277 352.611 158.621C348.918 160.964 344.609 162.136 339.685 162.136ZM339.685 154.608C343.426 154.608 346.503 153.649 348.918 151.732C351.333 149.814 353.12 147.293 354.28 144.168C355.44 141.043 356.02 137.657 356.02 134.011C356.02 130.366 355.44 126.968 354.28 123.82C353.12 120.671 351.333 118.126 348.918 116.185C346.503 114.243 343.426 113.273 339.685 113.273C335.944 113.273 332.867 114.243 330.452 116.185C328.037 118.126 326.25 120.671 325.09 123.82C323.93 126.968 323.35 130.366 323.35 134.011C323.35 137.657 323.93 141.043 325.09 144.168C326.25 147.293 328.037 149.814 330.452 151.732C332.867 153.649 335.944 154.608 339.685 154.608ZM409.438 161H400.205L426.91 88.2727H436.001L462.705 161H453.472L431.739 99.7784H431.171L409.438 161ZM412.847 132.591H450.063V140.403H412.847V132.591ZM472.897 161V106.455H480.994V114.693H481.562C482.556 111.994 484.355 109.804 486.96 108.124C489.564 106.443 492.499 105.602 495.766 105.602C496.382 105.602 497.151 105.614 498.075 105.638C498.998 105.661 499.696 105.697 500.17 105.744V114.267C499.886 114.196 499.235 114.089 498.217 113.947C497.222 113.782 496.169 113.699 495.056 113.699C492.405 113.699 490.037 114.255 487.954 115.368C485.894 116.457 484.261 117.972 483.053 119.913C481.87 121.831 481.278 124.021 481.278 126.483V161H472.897ZM531.313 162.136C526.058 162.136 521.524 160.976 517.712 158.656C513.924 156.312 511.001 153.045 508.941 148.855C506.905 144.641 505.887 139.741 505.887 134.153C505.887 128.566 506.905 123.642 508.941 119.381C511.001 115.096 513.865 111.758 517.535 109.366C521.228 106.952 525.537 105.744 530.461 105.744C533.302 105.744 536.107 106.218 538.877 107.165C541.647 108.112 544.168 109.651 546.441 111.781C548.714 113.888 550.525 116.682 551.874 120.162C553.224 123.642 553.898 127.927 553.898 133.017V136.568H511.853V129.324H545.376C545.376 126.246 544.76 123.5 543.529 121.085C542.322 118.67 540.594 116.765 538.344 115.368C536.119 113.971 533.491 113.273 530.461 113.273C527.123 113.273 524.235 114.101 521.796 115.759C519.381 117.392 517.523 119.523 516.221 122.151C514.919 124.778 514.268 127.596 514.268 130.602V135.432C514.268 139.551 514.978 143.043 516.398 145.908C517.843 148.749 519.843 150.915 522.4 152.406C524.957 153.874 527.928 154.608 531.313 154.608C533.515 154.608 535.504 154.3 537.279 153.685C539.078 153.045 540.629 152.098 541.931 150.844C543.233 149.565 544.239 147.979 544.95 146.085L553.046 148.358C552.194 151.104 550.762 153.519 548.749 155.602C546.737 157.662 544.251 159.272 541.292 160.432C538.333 161.568 535.006 162.136 531.313 162.136ZM582.698 162.278C579.242 162.278 576.105 161.627 573.288 160.325C570.47 159 568.233 157.094 566.576 154.608C564.919 152.098 564.09 149.068 564.09 145.517C564.09 142.392 564.706 139.859 565.937 137.918C567.168 135.953 568.813 134.414 570.873 133.301C572.933 132.188 575.205 131.36 577.691 130.815C580.201 130.247 582.722 129.797 585.255 129.466C588.569 129.04 591.256 128.72 593.316 128.507C595.399 128.27 596.915 127.88 597.862 127.335C598.832 126.791 599.317 125.844 599.317 124.494V124.21C599.317 120.706 598.359 117.984 596.441 116.043C594.547 114.101 591.671 113.131 587.812 113.131C583.811 113.131 580.674 114.007 578.401 115.759C576.129 117.51 574.531 119.381 573.607 121.369L565.653 118.528C567.073 115.214 568.967 112.634 571.335 110.787C573.726 108.917 576.33 107.615 579.147 106.881C581.988 106.123 584.781 105.744 587.528 105.744C589.28 105.744 591.292 105.957 593.565 106.384C595.861 106.786 598.075 107.626 600.205 108.905C602.36 110.183 604.147 112.113 605.567 114.693C606.988 117.274 607.698 120.73 607.698 125.062V161H599.317V153.614H598.891C598.323 154.797 597.376 156.064 596.05 157.413C594.725 158.763 592.961 159.911 590.759 160.858C588.558 161.805 585.871 162.278 582.698 162.278ZM583.977 154.75C587.291 154.75 590.085 154.099 592.357 152.797C594.654 151.495 596.382 149.814 597.542 147.754C598.726 145.695 599.317 143.528 599.317 141.256V133.585C598.962 134.011 598.181 134.402 596.974 134.757C595.79 135.089 594.417 135.384 592.854 135.645C591.316 135.882 589.812 136.095 588.344 136.284C586.9 136.45 585.728 136.592 584.829 136.71C582.651 136.994 580.615 137.456 578.721 138.095C576.851 138.711 575.335 139.646 574.175 140.901C573.039 142.132 572.471 143.812 572.471 145.943C572.471 148.855 573.548 151.057 575.702 152.548C577.88 154.016 580.638 154.75 583.977 154.75Z" fill="black"/>
</g>
<defs>
<clipPath id="clip0_1_2">
<rect width="750" height="250" fill="white"/>
</clipPath>
</defs>
</svg>
